<svg xmlns="http://www.w3.org/2000/svg" xmlns:xlink="http://www.w3.org/1999/xlink" preserveAspectRatio="xMidYMid" width="37" height="21" viewBox="0 0 37 21">
  <defs>
    <style>
      .cls-1 {
        fill: #12ff00;
        fill-rule: evenodd;
      }
    </style>
  </defs>
  <path d="M8.334,8.099 C15.111,8.099 21.889,8.099 28.666,8.099 C28.666,6.596 28.666,5.094 28.666,3.592 C28.666,2.611 28.625,1.712 29.026,1.127 C29.122,1.056 29.219,0.986 29.315,0.915 C29.315,0.869 29.315,0.822 29.315,0.775 C29.387,0.751 29.459,0.728 29.531,0.704 C29.603,0.610 29.675,0.516 29.747,0.423 C29.795,0.423 29.843,0.423 29.892,0.423 C29.892,0.399 29.892,0.376 29.892,0.352 C30.036,0.305 30.180,0.258 30.324,0.211 C30.324,0.188 30.324,0.164 30.324,0.141 C30.396,0.141 30.468,0.141 30.540,0.141 C30.540,0.117 30.540,0.094 30.540,0.070 C30.709,0.070 30.877,0.070 31.045,0.070 C31.045,0.047 31.045,0.023 31.045,0.000 C31.406,0.047 31.766,0.094 32.127,0.141 C32.127,0.164 32.127,0.188 32.127,0.211 C32.199,0.211 32.271,0.211 32.343,0.211 C32.367,0.258 32.391,0.305 32.415,0.352 C32.463,0.352 32.511,0.352 32.559,0.352 C32.559,0.376 32.559,0.399 32.559,0.423 C32.607,0.423 32.655,0.423 32.703,0.423 C32.751,0.493 32.800,0.563 32.848,0.634 C32.896,0.634 32.944,0.634 32.992,0.634 C32.992,0.657 32.992,0.681 32.992,0.704 C33.064,0.751 33.136,0.798 33.208,0.845 C33.208,0.892 33.208,0.939 33.208,0.986 C33.280,1.033 33.352,1.080 33.424,1.127 C33.424,1.174 33.424,1.221 33.424,1.268 C33.448,1.268 33.472,1.268 33.496,1.268 C33.520,1.361 33.545,1.455 33.569,1.549 C33.593,1.549 33.617,1.549 33.641,1.549 C33.665,1.690 33.689,1.831 33.713,1.972 C33.737,1.972 33.761,1.972 33.785,1.972 C33.931,2.425 33.578,3.271 33.857,3.592 C33.969,3.463 33.997,3.529 34.145,3.451 C34.145,3.427 34.145,3.404 34.145,3.380 C34.193,3.380 34.241,3.380 34.290,3.380 C34.290,3.357 34.290,3.333 34.290,3.310 C34.338,3.310 34.386,3.310 34.434,3.310 C34.434,3.286 34.434,3.263 34.434,3.239 C34.554,3.239 34.674,3.239 34.794,3.239 C34.794,3.216 34.794,3.192 34.794,3.169 C35.111,3.082 35.710,3.297 35.876,3.380 C35.924,3.380 35.972,3.380 36.020,3.380 C36.044,3.427 36.068,3.474 36.092,3.521 C36.140,3.521 36.188,3.521 36.236,3.521 C36.308,3.615 36.380,3.709 36.453,3.803 C36.525,3.850 36.597,3.897 36.669,3.944 C37.167,4.670 36.957,7.334 36.957,8.592 C36.957,10.235 36.957,11.878 36.957,13.521 C36.957,14.450 37.053,15.500 36.669,16.056 C36.573,16.127 36.477,16.197 36.380,16.268 C36.332,16.338 36.284,16.408 36.236,16.479 C36.017,16.630 35.189,16.969 34.722,16.831 C34.722,16.808 34.722,16.784 34.722,16.761 C34.554,16.737 34.386,16.714 34.217,16.690 C34.193,16.643 34.169,16.596 34.145,16.549 C34.097,16.549 34.049,16.549 34.001,16.549 C34.001,16.526 34.001,16.502 34.001,16.479 C33.929,16.455 33.857,16.432 33.785,16.408 C33.785,16.948 33.785,17.488 33.785,18.028 C33.761,18.028 33.737,18.028 33.713,18.028 C33.689,18.169 33.665,18.310 33.641,18.451 C33.617,18.451 33.593,18.451 33.569,18.451 C33.569,18.498 33.569,18.545 33.569,18.592 C33.545,18.592 33.520,18.592 33.496,18.592 C33.496,18.638 33.496,18.685 33.496,18.732 C33.472,18.732 33.448,18.732 33.424,18.732 C33.424,18.779 33.424,18.826 33.424,18.873 C33.352,18.920 33.280,18.967 33.208,19.014 C33.208,19.061 33.208,19.108 33.208,19.155 C33.184,19.155 33.160,19.155 33.136,19.155 C33.088,19.225 33.040,19.296 32.992,19.366 C32.944,19.366 32.896,19.366 32.848,19.366 C32.800,19.437 32.751,19.507 32.703,19.577 C32.655,19.577 32.607,19.577 32.559,19.577 C32.559,19.601 32.559,19.624 32.559,19.648 C32.511,19.648 32.463,19.648 32.415,19.648 C32.391,19.695 32.367,19.742 32.343,19.789 C32.271,19.789 32.199,19.789 32.127,19.789 C32.127,19.812 32.127,19.836 32.127,19.859 C31.766,19.906 31.406,19.953 31.045,20.000 C31.045,19.977 31.045,19.953 31.045,19.930 C30.877,19.930 30.709,19.930 30.540,19.930 C30.540,19.906 30.540,19.883 30.540,19.859 C30.468,19.859 30.396,19.859 30.324,19.859 C30.324,19.836 30.324,19.812 30.324,19.789 C30.180,19.742 30.036,19.695 29.892,19.648 C29.892,19.624 29.892,19.601 29.892,19.577 C29.843,19.577 29.795,19.577 29.747,19.577 C29.675,19.484 29.603,19.390 29.531,19.296 C29.459,19.272 29.387,19.249 29.315,19.225 C29.315,19.178 29.315,19.131 29.315,19.085 C29.219,19.014 29.122,18.944 29.026,18.873 C28.626,18.287 28.666,17.391 28.666,16.408 C28.666,14.906 28.666,13.404 28.666,11.901 C21.889,11.901 15.111,11.901 8.334,11.901 C8.334,13.404 8.334,14.906 8.334,16.408 C8.334,17.389 8.375,18.288 7.974,18.873 C7.878,18.944 7.781,19.014 7.685,19.085 C7.685,19.131 7.685,19.178 7.685,19.225 C7.613,19.249 7.541,19.272 7.469,19.296 C7.397,19.390 7.325,19.484 7.253,19.577 C7.205,19.577 7.157,19.577 7.108,19.577 C7.108,19.601 7.108,19.624 7.108,19.648 C6.964,19.695 6.820,19.742 6.676,19.789 C6.676,19.812 6.676,19.836 6.676,19.859 C6.604,19.859 6.532,19.859 6.460,19.859 C6.460,19.883 6.460,19.906 6.460,19.930 C6.291,19.930 6.123,19.930 5.955,19.930 C5.955,19.953 5.955,19.977 5.955,20.000 C5.594,19.953 5.234,19.906 4.873,19.859 C4.873,19.836 4.873,19.812 4.873,19.789 C4.801,19.789 4.729,19.789 4.657,19.789 C4.633,19.742 4.609,19.695 4.585,19.648 C4.537,19.648 4.489,19.648 4.441,19.648 C4.441,19.624 4.441,19.601 4.441,19.577 C4.393,19.577 4.345,19.577 4.297,19.577 C4.249,19.507 4.200,19.437 4.152,19.366 C4.104,19.366 4.056,19.366 4.008,19.366 C4.008,19.343 4.008,19.319 4.008,19.296 C3.936,19.249 3.864,19.202 3.792,19.155 C3.792,19.108 3.792,19.061 3.792,19.014 C3.720,18.967 3.648,18.920 3.576,18.873 C3.576,18.826 3.576,18.779 3.576,18.732 C3.552,18.732 3.528,18.732 3.504,18.732 C3.480,18.639 3.455,18.545 3.431,18.451 C3.407,18.451 3.383,18.451 3.359,18.451 C3.335,18.310 3.311,18.169 3.287,18.028 C3.263,18.028 3.239,18.028 3.215,18.028 C3.069,17.575 3.422,16.729 3.143,16.408 C3.019,16.552 2.990,16.467 2.855,16.549 C2.831,16.596 2.807,16.643 2.783,16.690 C2.710,16.690 2.638,16.690 2.566,16.690 C1.957,16.924 1.226,16.798 0.764,16.479 C0.692,16.385 0.620,16.291 0.547,16.197 C0.475,16.150 0.403,16.103 0.331,16.056 C-0.167,15.330 0.043,12.666 0.043,11.408 C0.043,9.765 0.043,8.122 0.043,6.479 C0.043,5.550 -0.053,4.500 0.331,3.944 C0.427,3.873 0.523,3.803 0.620,3.732 C0.753,3.604 0.949,3.386 1.124,3.310 C1.196,3.310 1.268,3.310 1.341,3.310 C1.341,3.286 1.341,3.263 1.341,3.239 C1.461,3.239 1.581,3.239 1.701,3.239 C1.701,3.216 1.701,3.192 1.701,3.169 C1.869,3.169 2.038,3.169 2.206,3.169 C2.206,3.192 2.206,3.216 2.206,3.239 C2.326,3.239 2.446,3.239 2.566,3.239 C2.566,3.263 2.566,3.286 2.566,3.310 C2.614,3.310 2.662,3.310 2.710,3.310 C2.710,3.333 2.710,3.357 2.710,3.380 C2.882,3.468 3.053,3.519 3.215,3.592 C3.215,3.052 3.215,2.512 3.215,1.972 C3.239,1.972 3.263,1.972 3.287,1.972 C3.311,1.831 3.335,1.690 3.359,1.549 C3.383,1.549 3.407,1.549 3.431,1.549 C3.431,1.502 3.431,1.455 3.431,1.408 C3.455,1.408 3.480,1.408 3.504,1.408 C3.504,1.362 3.504,1.315 3.504,1.268 C3.528,1.268 3.552,1.268 3.576,1.268 C3.576,1.221 3.576,1.174 3.576,1.127 C3.648,1.080 3.720,1.033 3.792,0.986 C3.792,0.939 3.792,0.892 3.792,0.845 C3.816,0.845 3.840,0.845 3.864,0.845 C3.912,0.775 3.960,0.704 4.008,0.634 C4.056,0.634 4.104,0.634 4.152,0.634 C4.200,0.563 4.249,0.493 4.297,0.423 C4.345,0.423 4.393,0.423 4.441,0.423 C4.441,0.399 4.441,0.376 4.441,0.352 C4.489,0.352 4.537,0.352 4.585,0.352 C4.609,0.305 4.633,0.258 4.657,0.211 C4.729,0.211 4.801,0.211 4.873,0.211 C4.873,0.188 4.873,0.164 4.873,0.141 C5.234,0.094 5.594,0.047 5.955,0.000 C5.955,0.023 5.955,0.047 5.955,0.070 C6.123,0.070 6.291,0.070 6.460,0.070 C6.460,0.094 6.460,0.117 6.460,0.141 C6.532,0.141 6.604,0.141 6.676,0.141 C6.676,0.164 6.676,0.188 6.676,0.211 C6.820,0.258 6.964,0.305 7.108,0.352 C7.108,0.376 7.108,0.399 7.108,0.423 C7.157,0.423 7.205,0.423 7.253,0.423 C7.325,0.516 7.397,0.610 7.469,0.704 C7.541,0.728 7.613,0.751 7.685,0.775 C7.685,0.822 7.685,0.869 7.685,0.915 C7.781,0.986 7.878,1.056 7.974,1.127 C8.374,1.713 8.334,2.609 8.334,3.592 C8.334,5.094 8.334,6.596 8.334,8.099 Z" class="cls-1"/>
</svg>
